solid OpenSCAD_Model
  facet normal -1 0 0
    outer loop
      vertex 0 0 0
      vertex 0 18.4 1.8
      vertex 0 18.4 0
    endloop
  endfacet
  facet normal -1 -0 0
    outer loop
      vertex 0 18.4 1.8
      vertex 0 0 0
      vertex 0 0 1.8
    endloop
  endfacet
  facet normal 0 0 1
    outer loop
      vertex 23.5 18.4 1.8
      vertex 18.5 13.4 1.8
      vertex 23.5 0 1.8
    endloop
  endfacet
  facet normal 0 0 1
    outer loop
      vertex 23.5 18.4 1.8
      vertex 5 13.4 1.8
      vertex 18.5 13.4 1.8
    endloop
  endfacet
  facet normal 0 0 1
    outer loop
      vertex 5 13.4 1.8
      vertex 0 18.4 1.8
      vertex 5 5 1.8
    endloop
  endfacet
  facet normal -0 0 1
    outer loop
      vertex 0 18.4 1.8
      vertex 5 13.4 1.8
      vertex 23.5 18.4 1.8
    endloop
  endfacet
  facet normal -0 0 1
    outer loop
      vertex 18.5 5 1.8
      vertex 23.5 0 1.8
      vertex 18.5 13.4 1.8
    endloop
  endfacet
  facet normal -0 0 1
    outer loop
      vertex 5 5 1.8
      vertex 23.5 0 1.8
      vertex 18.5 5 1.8
    endloop
  endfacet
  facet normal 0 0 1
    outer loop
      vertex 5 5 1.8
      vertex 0 0 1.8
      vertex 23.5 0 1.8
    endloop
  endfacet
  facet normal 0 0 1
    outer loop
      vertex 0 0 1.8
      vertex 5 5 1.8
      vertex 0 18.4 1.8
    endloop
  endfacet
  facet normal 1 -0 0
    outer loop
      vertex 23.5 0 1.8
      vertex 23.5 18.4 0
      vertex 23.5 18.4 1.8
    endloop
  endfacet
  facet normal 1 0 0
    outer loop
      vertex 23.5 18.4 0
      vertex 23.5 0 1.8
      vertex 23.5 0 0
    endloop
  endfacet
  facet normal 0 1 -0
    outer loop
      vertex 23.5 18.4 0
      vertex 0 18.4 1.8
      vertex 23.5 18.4 1.8
    endloop
  endfacet
  facet normal 0 1 0
    outer loop
      vertex 0 18.4 1.8
      vertex 23.5 18.4 0
      vertex 0 18.4 0
    endloop
  endfacet
  facet normal 0 0 -1
    outer loop
      vertex 23.5 0 0
      vertex 18.5 5 0
      vertex 23.5 18.4 0
    endloop
  endfacet
  facet normal 0 0 -1
    outer loop
      vertex 23.5 0 0
      vertex 5 5 0
      vertex 18.5 5 0
    endloop
  endfacet
  facet normal -0 0 -1
    outer loop
      vertex 5 5 0
      vertex 0 0 0
      vertex 5 13.4 0
    endloop
  endfacet
  facet normal 0 0 -1
    outer loop
      vertex 0 0 0
      vertex 5 5 0
      vertex 23.5 0 0
    endloop
  endfacet
  facet normal 0 0 -1
    outer loop
      vertex 18.5 13.4 0
      vertex 23.5 18.4 0
      vertex 18.5 5 0
    endloop
  endfacet
  facet normal 0 0 -1
    outer loop
      vertex 5 13.4 0
      vertex 23.5 18.4 0
      vertex 18.5 13.4 0
    endloop
  endfacet
  facet normal 0 0 -1
    outer loop
      vertex 5 13.4 0
      vertex 0 18.4 0
      vertex 23.5 18.4 0
    endloop
  endfacet
  facet normal 0 0 -1
    outer loop
      vertex 0 18.4 0
      vertex 5 13.4 0
      vertex 0 0 0
    endloop
  endfacet
  facet normal 0 -1 0
    outer loop
      vertex 0 0 0
      vertex 23.5 0 1.8
      vertex 0 0 1.8
    endloop
  endfacet
  facet normal 0 -1 -0
    outer loop
      vertex 23.5 0 1.8
      vertex 0 0 0
      vertex 23.5 0 0
    endloop
  endfacet
  facet normal 1 -0 0
    outer loop
      vertex 5 5 1.8
      vertex 5 13.4 0
      vertex 5 13.4 1.8
    endloop
  endfacet
  facet normal 1 0 0
    outer loop
      vertex 5 13.4 0
      vertex 5 5 1.8
      vertex 5 5 0
    endloop
  endfacet
  facet normal -1 0 0
    outer loop
      vertex 18.5 5 0
      vertex 18.5 13.4 1.8
      vertex 18.5 13.4 0
    endloop
  endfacet
  facet normal -1 -0 0
    outer loop
      vertex 18.5 13.4 1.8
      vertex 18.5 5 0
      vertex 18.5 5 1.8
    endloop
  endfacet
  facet normal 0 -1 0
    outer loop
      vertex 5 13.4 0
      vertex 18.5 13.4 1.8
      vertex 5 13.4 1.8
    endloop
  endfacet
  facet normal 0 -1 -0
    outer loop
      vertex 18.5 13.4 1.8
      vertex 5 13.4 0
      vertex 18.5 13.4 0
    endloop
  endfacet
  facet normal 0 1 -0
    outer loop
      vertex 18.5 5 0
      vertex 5 5 1.8
      vertex 18.5 5 1.8
    endloop
  endfacet
  facet normal 0 1 0
    outer loop
      vertex 5 5 1.8
      vertex 18.5 5 0
      vertex 5 5 0
    endloop
  endfacet
endsolid OpenSCAD_Model
