solid OpenSCAD_Model
  facet normal -0.996917 -0.0784588 0
    outer loop
      vertex 1.3 2.2 -7.62939e-07
      vertex 1.26553 2.63802 1.2
      vertex 1.26553 2.63802 -7.62939e-07
    endloop
  endfacet
  facet normal -0.996917 -0.0784588 0
    outer loop
      vertex 1.26553 2.63802 1.2
      vertex 1.3 2.2 -7.62939e-07
      vertex 1.3 2.2 1.2
    endloop
  endfacet
  facet normal -0.649449 -0.760405 0
    outer loop
      vertex 0.145799 4.46525 -7.62939e-07
      vertex 0.479898 4.1799 1.2
      vertex 0.145799 4.46525 1.2
    endloop
  endfacet
  facet normal -0.649449 -0.760405 -0
    outer loop
      vertex 0.479898 4.1799 1.2
      vertex 0.145799 4.46525 -7.62939e-07
      vertex 0.479898 4.1799 -7.62939e-07
    endloop
  endfacet
  facet normal -0.760405 0.649449 0
    outer loop
      vertex 0.479898 0.220101 -7.62939e-07
      vertex 0.765247 0.5542 1.2
      vertex 0.765247 0.5542 -7.62939e-07
    endloop
  endfacet
  facet normal -0.760405 0.649449 0
    outer loop
      vertex 0.765247 0.5542 1.2
      vertex 0.479898 0.220101 -7.62939e-07
      vertex 0.479898 0.220101 1.2
    endloop
  endfacet
  facet normal -0.852641 -0.522497 0
    outer loop
      vertex 0.994818 3.47117 -7.62939e-07
      vertex 0.765247 3.8458 1.2
      vertex 0.765247 3.8458 -7.62939e-07
    endloop
  endfacet
  facet normal -0.852641 -0.522497 0
    outer loop
      vertex 0.765247 3.8458 1.2
      vertex 0.994818 3.47117 -7.62939e-07
      vertex 0.994818 3.47117 1.2
    endloop
  endfacet
  facet normal -0.97237 -0.233444 0
    outer loop
      vertex 1.26553 2.63802 -7.62939e-07
      vertex 1.16296 3.06525 1.2
      vertex 1.16296 3.06525 -7.62939e-07
    endloop
  endfacet
  facet normal -0.97237 -0.233444 0
    outer loop
      vertex 1.16296 3.06525 1.2
      vertex 1.26553 2.63802 -7.62939e-07
      vertex 1.26553 2.63802 1.2
    endloop
  endfacet
  facet normal -0.760405 -0.649449 0
    outer loop
      vertex 0.765247 3.8458 -7.62939e-07
      vertex 0.479898 4.1799 1.2
      vertex 0.479898 4.1799 -7.62939e-07
    endloop
  endfacet
  facet normal -0.760405 -0.649449 0
    outer loop
      vertex 0.479898 4.1799 1.2
      vertex 0.765247 3.8458 -7.62939e-07
      vertex 0.765247 3.8458 1.2
    endloop
  endfacet
  facet normal -0.522498 -0.85264 0
    outer loop
      vertex 0 4.55459 -7.62939e-07
      vertex 0.145799 4.46525 1.2
      vertex 0 4.55459 1.2
    endloop
  endfacet
  facet normal -0.522498 -0.85264 -0
    outer loop
      vertex 0.145799 4.46525 1.2
      vertex 0 4.55459 -7.62939e-07
      vertex 0.145799 4.46525 -7.62939e-07
    endloop
  endfacet
  facet normal -0.649448 0.760406 0
    outer loop
      vertex 0.479898 0.220101 -7.62939e-07
      vertex 0.222194 1.90735e-07 1.2
      vertex 0.479898 0.220101 1.2
    endloop
  endfacet
  facet normal -0.649448 0.760406 0
    outer loop
      vertex 0.222194 1.90735e-07 1.2
      vertex 0.479898 0.220101 -7.62939e-07
      vertex 0.222194 1.90735e-07 -7.62939e-07
    endloop
  endfacet
  facet normal -0.923879 -0.382684 0
    outer loop
      vertex 1.16296 3.06525 -7.62939e-07
      vertex 0.994818 3.47117 1.2
      vertex 0.994818 3.47117 -7.62939e-07
    endloop
  endfacet
  facet normal -0.923879 -0.382684 0
    outer loop
      vertex 0.994818 3.47117 1.2
      vertex 1.16296 3.06525 -7.62939e-07
      vertex 1.16296 3.06525 1.2
    endloop
  endfacet
  facet normal -0.996917 0.0784586 0
    outer loop
      vertex 1.26553 1.76198 -7.62939e-07
      vertex 1.3 2.2 1.2
      vertex 1.3 2.2 -7.62939e-07
    endloop
  endfacet
  facet normal -0.996917 0.0784586 0
    outer loop
      vertex 1.3 2.2 1.2
      vertex 1.26553 1.76198 -7.62939e-07
      vertex 1.26553 1.76198 1.2
    endloop
  endfacet
  facet normal -0.923879 0.382684 0
    outer loop
      vertex 0.994818 0.928827 -7.62939e-07
      vertex 1.16296 1.33475 1.2
      vertex 1.16296 1.33475 -7.62939e-07
    endloop
  endfacet
  facet normal -0.923879 0.382684 0
    outer loop
      vertex 1.16296 1.33475 1.2
      vertex 0.994818 0.928827 -7.62939e-07
      vertex 0.994818 0.928827 1.2
    endloop
  endfacet
  facet normal -0.852641 0.522497 0
    outer loop
      vertex 0.765247 0.5542 -7.62939e-07
      vertex 0.994818 0.928827 1.2
      vertex 0.994818 0.928827 -7.62939e-07
    endloop
  endfacet
  facet normal -0.852641 0.522497 0
    outer loop
      vertex 0.994818 0.928827 1.2
      vertex 0.765247 0.5542 -7.62939e-07
      vertex 0.765247 0.5542 1.2
    endloop
  endfacet
  facet normal -0.97237 0.233444 0
    outer loop
      vertex 1.16296 1.33475 -7.62939e-07
      vertex 1.26553 1.76198 1.2
      vertex 1.26553 1.76198 -7.62939e-07
    endloop
  endfacet
  facet normal -0.97237 0.233444 0
    outer loop
      vertex 1.26553 1.76198 1.2
      vertex 1.16296 1.33475 -7.62939e-07
      vertex 1.16296 1.33475 1.2
    endloop
  endfacet
  facet normal -0.649449 0.760405 0
    outer loop
      vertex 0.479898 28.8201 -7.62939e-07
      vertex 0.145799 28.5348 1.2
      vertex 0.479898 28.8201 1.2
    endloop
  endfacet
  facet normal -0.649449 0.760405 0
    outer loop
      vertex 0.145799 28.5348 1.2
      vertex 0.479898 28.8201 -7.62939e-07
      vertex 0.145799 28.5348 -7.62939e-07
    endloop
  endfacet
  facet normal -0.5225 0.852639 0
    outer loop
      vertex 0.145799 28.5348 -7.62939e-07
      vertex 0 28.4454 1.2
      vertex 0.145799 28.5348 1.2
    endloop
  endfacet
  facet normal -0.5225 0.852639 0
    outer loop
      vertex 0 28.4454 1.2
      vertex 0.145799 28.5348 -7.62939e-07
      vertex 0 28.4454 -7.62939e-07
    endloop
  endfacet
  facet normal -0.760407 0.649447 0
    outer loop
      vertex 0.479898 28.8201 -7.62939e-07
      vertex 0.633546 29 1.2
      vertex 0.633546 29 -7.62939e-07
    endloop
  endfacet
  facet normal -0.760407 0.649447 0
    outer loop
      vertex 0.633546 29 1.2
      vertex 0.479898 28.8201 -7.62939e-07
      vertex 0.479898 28.8201 1.2
    endloop
  endfacet
  facet normal -1 0 0
    outer loop
      vertex 0 4.55459 -7.62939e-07
      vertex 0 28.4454 1.2
      vertex 0 28.4454 -7.62939e-07
    endloop
  endfacet
  facet normal -1 -0 0
    outer loop
      vertex 0 28.4454 1.2
      vertex 0 4.55459 -7.62939e-07
      vertex 0 4.55459 1.2
    endloop
  endfacet
  facet normal 0 0 1
    outer loop
      vertex 40 33 1.2
      vertex 39.4047 1.90735e-07 1.2
      vertex 40 0.364817 1.2
    endloop
  endfacet
  facet normal 0 0 1
    outer loop
      vertex 10 29 1.2
      vertex 40 33 1.2
      vertex 10 33 1.2
    endloop
  endfacet
  facet normal 0 0 1
    outer loop
      vertex 40 33 1.2
      vertex 10 29 1.2
      vertex 39.4047 1.90735e-07 1.2
    endloop
  endfacet
  facet normal 0 0 1
    outer loop
      vertex 10 29 1.2
      vertex 7.59533 1.90735e-07 1.2
      vertex 39.4047 1.90735e-07 1.2
    endloop
  endfacet
  facet normal 0 0 1
    outer loop
      vertex 10 29 1.2
      vertex 6.90614 0.422321 1.2
      vertex 7.59533 1.90735e-07 1.2
    endloop
  endfacet
  facet normal 0 0 1
    outer loop
      vertex 10 29 1.2
      vertex 6.13779 0.740588 1.2
      vertex 6.90614 0.422321 1.2
    endloop
  endfacet
  facet normal -0 0 1
    outer loop
      vertex 0.479898 4.1799 1.2
      vertex 6.13779 0.740588 1.2
      vertex 10 29 1.2
    endloop
  endfacet
  facet normal -0 -0 1
    outer loop
      vertex 0.765247 3.8458 1.2
      vertex 6.13779 0.740588 1.2
      vertex 0.479898 4.1799 1.2
    endloop
  endfacet
  facet normal 0 0 1
    outer loop
      vertex 6.13779 0.740588 1.2
      vertex 0.765247 3.8458 1.2
      vertex 5.3291 0.934741 1.2
    endloop
  endfacet
  facet normal 0 0 1
    outer loop
      vertex 5.3291 0.934741 1.2
      vertex 0.994818 3.47117 1.2
      vertex 4.5 0.999988 1.2
    endloop
  endfacet
  facet normal 0 0 1
    outer loop
      vertex 4.5 0.999988 1.2
      vertex 1.16296 3.06525 1.2
      vertex 3.67088 0.934741 1.2
    endloop
  endfacet
  facet normal -0 -0 1
    outer loop
      vertex 1.3 2.2 1.2
      vertex 3.67088 0.934741 1.2
      vertex 1.26553 2.63802 1.2
    endloop
  endfacet
  facet normal 0 0 1
    outer loop
      vertex 2.8622 0.740588 1.2
      vertex 1.26553 1.76198 1.2
      vertex 2.09384 0.422321 1.2
    endloop
  endfacet
  facet normal -0 0 1
    outer loop
      vertex 1.26553 1.76198 1.2
      vertex 2.8622 0.740588 1.2
      vertex 1.3 2.2 1.2
    endloop
  endfacet
  facet normal 0 0 1
    outer loop
      vertex 3.67088 0.934741 1.2
      vertex 1.3 2.2 1.2
      vertex 2.8622 0.740588 1.2
    endloop
  endfacet
  facet normal -0 -0 1
    outer loop
      vertex 1.26553 2.63802 1.2
      vertex 3.67088 0.934741 1.2
      vertex 1.16296 3.06525 1.2
    endloop
  endfacet
  facet normal -0 -0 1
    outer loop
      vertex 1.16296 3.06525 1.2
      vertex 4.5 0.999988 1.2
      vertex 0.994818 3.47117 1.2
    endloop
  endfacet
  facet normal 0 0 1
    outer loop
      vertex 0.479898 28.8201 1.2
      vertex 10 29 1.2
      vertex 0.633546 29 1.2
    endloop
  endfacet
  facet normal 0 0 1
    outer loop
      vertex 0.145799 28.5348 1.2
      vertex 10 29 1.2
      vertex 0.479898 28.8201 1.2
    endloop
  endfacet
  facet normal -0 -0 1
    outer loop
      vertex 0.994818 3.47117 1.2
      vertex 5.3291 0.934741 1.2
      vertex 0.765247 3.8458 1.2
    endloop
  endfacet
  facet normal 0 0 1
    outer loop
      vertex 0 28.4454 1.2
      vertex 10 29 1.2
      vertex 0.145799 28.5348 1.2
    endloop
  endfacet
  facet normal 0 0 1
    outer loop
      vertex 10 29 1.2
      vertex 0.145799 4.46525 1.2
      vertex 0.479898 4.1799 1.2
    endloop
  endfacet
  facet normal 0 0 1
    outer loop
      vertex 0 4.55459 1.2
      vertex 10 29 1.2
      vertex 0 28.4454 1.2
    endloop
  endfacet
  facet normal 0 0 1
    outer loop
      vertex 10 29 1.2
      vertex 0 4.55459 1.2
      vertex 0.145799 4.46525 1.2
    endloop
  endfacet
  facet normal -0 0 1
    outer loop
      vertex 1.16296 1.33475 1.2
      vertex 2.09384 0.422321 1.2
      vertex 1.26553 1.76198 1.2
    endloop
  endfacet
  facet normal -0 0 1
    outer loop
      vertex 0.994818 0.928827 1.2
      vertex 2.09384 0.422321 1.2
      vertex 1.16296 1.33475 1.2
    endloop
  endfacet
  facet normal 0 0 1
    outer loop
      vertex 2.09384 0.422321 1.2
      vertex 0.994818 0.928827 1.2
      vertex 1.40465 1.90735e-07 1.2
    endloop
  endfacet
  facet normal -0 0 1
    outer loop
      vertex 0.765247 0.5542 1.2
      vertex 1.40465 1.90735e-07 1.2
      vertex 0.994818 0.928827 1.2
    endloop
  endfacet
  facet normal -0 0 1
    outer loop
      vertex 0.479898 0.220101 1.2
      vertex 1.40465 1.90735e-07 1.2
      vertex 0.765247 0.5542 1.2
    endloop
  endfacet
  facet normal 0 0 1
    outer loop
      vertex 1.40465 1.90735e-07 1.2
      vertex 0.479898 0.220101 1.2
      vertex 0.222194 1.90735e-07 1.2
    endloop
  endfacet
  facet normal 1 -0 0
    outer loop
      vertex 40 0.364817 1.2
      vertex 40 33 -7.62939e-07
      vertex 40 33 1.2
    endloop
  endfacet
  facet normal 1 0 0
    outer loop
      vertex 40 33 -7.62939e-07
      vertex 40 0.364817 1.2
      vertex 40 0.364817 -7.62939e-07
    endloop
  endfacet
  facet normal 0 0 -1
    outer loop
      vertex 2.8622 0.740588 -7.62939e-07
      vertex 1.26553 1.76198 -7.62939e-07
      vertex 1.3 2.2 -7.62939e-07
    endloop
  endfacet
  facet normal 0 0 -1
    outer loop
      vertex 2.09384 0.422321 -7.62939e-07
      vertex 1.16296 1.33475 -7.62939e-07
      vertex 1.26553 1.76198 -7.62939e-07
    endloop
  endfacet
  facet normal 0 0 -1
    outer loop
      vertex 2.09384 0.422321 -7.62939e-07
      vertex 0.994818 0.928827 -7.62939e-07
      vertex 1.16296 1.33475 -7.62939e-07
    endloop
  endfacet
  facet normal 0 0 -1
    outer loop
      vertex 1.40465 1.90735e-07 -7.62939e-07
      vertex 0.765247 0.5542 -7.62939e-07
      vertex 0.994818 0.928827 -7.62939e-07
    endloop
  endfacet
  facet normal 0 0 -1
    outer loop
      vertex 1.40465 1.90735e-07 -7.62939e-07
      vertex 0.479898 0.220101 -7.62939e-07
      vertex 0.765247 0.5542 -7.62939e-07
    endloop
  endfacet
  facet normal 0 -0 -1
    outer loop
      vertex 0.479898 0.220101 -7.62939e-07
      vertex 1.40465 1.90735e-07 -7.62939e-07
      vertex 0.222194 1.90735e-07 -7.62939e-07
    endloop
  endfacet
  facet normal 0 0 -1
    outer loop
      vertex 7.59533 1.90735e-07 -7.62939e-07
      vertex 10 29 -7.62939e-07
      vertex 39.4047 1.90735e-07 -7.62939e-07
    endloop
  endfacet
  facet normal 0 0 -1
    outer loop
      vertex 6.90614 0.422321 -7.62939e-07
      vertex 10 29 -7.62939e-07
      vertex 7.59533 1.90735e-07 -7.62939e-07
    endloop
  endfacet
  facet normal 0 0 -1
    outer loop
      vertex 6.13779 0.740588 -7.62939e-07
      vertex 10 29 -7.62939e-07
      vertex 6.90614 0.422321 -7.62939e-07
    endloop
  endfacet
  facet normal 0 0 -1
    outer loop
      vertex 0.765247 3.8458 -7.62939e-07
      vertex 6.13779 0.740588 -7.62939e-07
      vertex 5.3291 0.934741 -7.62939e-07
    endloop
  endfacet
  facet normal 0 0 -1
    outer loop
      vertex 0.994818 3.47117 -7.62939e-07
      vertex 5.3291 0.934741 -7.62939e-07
      vertex 4.5 0.999988 -7.62939e-07
    endloop
  endfacet
  facet normal 0 0 -1
    outer loop
      vertex 1.16296 3.06525 -7.62939e-07
      vertex 4.5 0.999988 -7.62939e-07
      vertex 3.67088 0.934741 -7.62939e-07
    endloop
  endfacet
  facet normal 0 0 -1
    outer loop
      vertex 1.3 2.2 -7.62939e-07
      vertex 3.67088 0.934741 -7.62939e-07
      vertex 2.8622 0.740588 -7.62939e-07
    endloop
  endfacet
  facet normal 0 0 -1
    outer loop
      vertex 1.26553 1.76198 -7.62939e-07
      vertex 2.8622 0.740588 -7.62939e-07
      vertex 2.09384 0.422321 -7.62939e-07
    endloop
  endfacet
  facet normal 0 0 -1
    outer loop
      vertex 0.994818 0.928827 -7.62939e-07
      vertex 2.09384 0.422321 -7.62939e-07
      vertex 1.40465 1.90735e-07 -7.62939e-07
    endloop
  endfacet
  facet normal 0 0 -1
    outer loop
      vertex 3.67088 0.934741 -7.62939e-07
      vertex 1.3 2.2 -7.62939e-07
      vertex 1.26553 2.63802 -7.62939e-07
    endloop
  endfacet
  facet normal 0 0 -1
    outer loop
      vertex 3.67088 0.934741 -7.62939e-07
      vertex 1.26553 2.63802 -7.62939e-07
      vertex 1.16296 3.06525 -7.62939e-07
    endloop
  endfacet
  facet normal 0 0 -1
    outer loop
      vertex 4.5 0.999988 -7.62939e-07
      vertex 1.16296 3.06525 -7.62939e-07
      vertex 0.994818 3.47117 -7.62939e-07
    endloop
  endfacet
  facet normal 0 0 -1
    outer loop
      vertex 5.3291 0.934741 -7.62939e-07
      vertex 0.994818 3.47117 -7.62939e-07
      vertex 0.765247 3.8458 -7.62939e-07
    endloop
  endfacet
  facet normal 0 0 -1
    outer loop
      vertex 6.13779 0.740588 -7.62939e-07
      vertex 0.765247 3.8458 -7.62939e-07
      vertex 0.479898 4.1799 -7.62939e-07
    endloop
  endfacet
  facet normal 0 0 -1
    outer loop
      vertex 6.13779 0.740588 -7.62939e-07
      vertex 0.479898 4.1799 -7.62939e-07
      vertex 10 29 -7.62939e-07
    endloop
  endfacet
  facet normal 0 0 -1
    outer loop
      vertex 0.145799 4.46525 -7.62939e-07
      vertex 10 29 -7.62939e-07
      vertex 0.479898 4.1799 -7.62939e-07
    endloop
  endfacet
  facet normal -0 0 -1
    outer loop
      vertex 10 29 -7.62939e-07
      vertex 0.479898 28.8201 -7.62939e-07
      vertex 0.633546 29 -7.62939e-07
    endloop
  endfacet
  facet normal 0 0 -1
    outer loop
      vertex 0 4.55459 -7.62939e-07
      vertex 10 29 -7.62939e-07
      vertex 0.145799 4.46525 -7.62939e-07
    endloop
  endfacet
  facet normal 0 0 -1
    outer loop
      vertex 10 29 -7.62939e-07
      vertex 0.145799 28.5348 -7.62939e-07
      vertex 0.479898 28.8201 -7.62939e-07
    endloop
  endfacet
  facet normal 0 0 -1
    outer loop
      vertex 0 28.4454 -7.62939e-07
      vertex 10 29 -7.62939e-07
      vertex 0 4.55459 -7.62939e-07
    endloop
  endfacet
  facet normal 0 0 -1
    outer loop
      vertex 10 29 -7.62939e-07
      vertex 0 28.4454 -7.62939e-07
      vertex 0.145799 28.5348 -7.62939e-07
    endloop
  endfacet
  facet normal 0 0 -1
    outer loop
      vertex 39.4047 1.90735e-07 -7.62939e-07
      vertex 40 33 -7.62939e-07
      vertex 40 0.364817 -7.62939e-07
    endloop
  endfacet
  facet normal 0 0 -1
    outer loop
      vertex 10 29 -7.62939e-07
      vertex 40 33 -7.62939e-07
      vertex 39.4047 1.90735e-07 -7.62939e-07
    endloop
  endfacet
  facet normal -0 0 -1
    outer loop
      vertex 40 33 -7.62939e-07
      vertex 10 29 -7.62939e-07
      vertex 10 33 -7.62939e-07
    endloop
  endfacet
  facet normal 0 -1 0
    outer loop
      vertex 0.222194 1.90735e-07 -7.62939e-07
      vertex 1.40465 1.90735e-07 1.2
      vertex 0.222194 1.90735e-07 1.2
    endloop
  endfacet
  facet normal 0 -1 -0
    outer loop
      vertex 1.40465 1.90735e-07 1.2
      vertex 0.222194 1.90735e-07 -7.62939e-07
      vertex 1.40465 1.90735e-07 -7.62939e-07
    endloop
  endfacet
  facet normal 0 -1 0
    outer loop
      vertex 7.59533 1.90735e-07 -7.62939e-07
      vertex 39.4047 1.90735e-07 1.2
      vertex 7.59533 1.90735e-07 1.2
    endloop
  endfacet
  facet normal 0 -1 -0
    outer loop
      vertex 39.4047 1.90735e-07 1.2
      vertex 7.59533 1.90735e-07 -7.62939e-07
      vertex 39.4047 1.90735e-07 -7.62939e-07
    endloop
  endfacet
  facet normal 0 1 -0
    outer loop
      vertex 40 33 -7.62939e-07
      vertex 10 33 1.2
      vertex 40 33 1.2
    endloop
  endfacet
  facet normal 0 1 0
    outer loop
      vertex 10 33 1.2
      vertex 40 33 -7.62939e-07
      vertex 10 33 -7.62939e-07
    endloop
  endfacet
  facet normal -0.522484 -0.852649 0
    outer loop
      vertex 6.90614 0.422321 -7.62939e-07
      vertex 7.59533 1.90735e-07 1.2
      vertex 6.90614 0.422321 1.2
    endloop
  endfacet
  facet normal -0.522484 -0.852649 -0
    outer loop
      vertex 7.59533 1.90735e-07 1.2
      vertex 6.90614 0.422321 -7.62939e-07
      vertex 7.59533 1.90735e-07 -7.62939e-07
    endloop
  endfacet
  facet normal -0.382688 -0.923878 0
    outer loop
      vertex 6.13779 0.740588 -7.62939e-07
      vertex 6.90614 0.422321 1.2
      vertex 6.13779 0.740588 1.2
    endloop
  endfacet
  facet normal -0.382688 -0.923878 -0
    outer loop
      vertex 6.90614 0.422321 1.2
      vertex 6.13779 0.740588 -7.62939e-07
      vertex 6.90614 0.422321 -7.62939e-07
    endloop
  endfacet
  facet normal -0.233451 -0.972369 0
    outer loop
      vertex 5.3291 0.934741 -7.62939e-07
      vertex 6.13779 0.740588 1.2
      vertex 5.3291 0.934741 1.2
    endloop
  endfacet
  facet normal -0.233451 -0.972369 -0
    outer loop
      vertex 6.13779 0.740588 1.2
      vertex 5.3291 0.934741 -7.62939e-07
      vertex 6.13779 0.740588 -7.62939e-07
    endloop
  endfacet
  facet normal -0.078453 -0.996918 0
    outer loop
      vertex 4.5 0.999988 -7.62939e-07
      vertex 5.3291 0.934741 1.2
      vertex 4.5 0.999988 1.2
    endloop
  endfacet
  facet normal -0.078453 -0.996918 -0
    outer loop
      vertex 5.3291 0.934741 1.2
      vertex 4.5 0.999988 -7.62939e-07
      vertex 5.3291 0.934741 -7.62939e-07
    endloop
  endfacet
  facet normal 0.0784515 -0.996918 0
    outer loop
      vertex 3.67088 0.934741 -7.62939e-07
      vertex 4.5 0.999988 1.2
      vertex 3.67088 0.934741 1.2
    endloop
  endfacet
  facet normal 0.0784515 -0.996918 0
    outer loop
      vertex 4.5 0.999988 1.2
      vertex 3.67088 0.934741 -7.62939e-07
      vertex 4.5 0.999988 -7.62939e-07
    endloop
  endfacet
  facet normal 0.233451 -0.972369 0
    outer loop
      vertex 2.8622 0.740588 -7.62939e-07
      vertex 3.67088 0.934741 1.2
      vertex 2.8622 0.740588 1.2
    endloop
  endfacet
  facet normal 0.233451 -0.972369 0
    outer loop
      vertex 3.67088 0.934741 1.2
      vertex 2.8622 0.740588 -7.62939e-07
      vertex 3.67088 0.934741 -7.62939e-07
    endloop
  endfacet
  facet normal 0.382688 -0.923878 0
    outer loop
      vertex 2.09384 0.422321 -7.62939e-07
      vertex 2.8622 0.740588 1.2
      vertex 2.09384 0.422321 1.2
    endloop
  endfacet
  facet normal 0.382688 -0.923878 0
    outer loop
      vertex 2.8622 0.740588 1.2
      vertex 2.09384 0.422321 -7.62939e-07
      vertex 2.8622 0.740588 -7.62939e-07
    endloop
  endfacet
  facet normal 0.522484 -0.852649 0
    outer loop
      vertex 1.40465 1.90735e-07 -7.62939e-07
      vertex 2.09384 0.422321 1.2
      vertex 1.40465 1.90735e-07 1.2
    endloop
  endfacet
  facet normal 0.522484 -0.852649 0
    outer loop
      vertex 2.09384 0.422321 1.2
      vertex 1.40465 1.90735e-07 -7.62939e-07
      vertex 2.09384 0.422321 -7.62939e-07
    endloop
  endfacet
  facet normal 0.522484 -0.852649 0
    outer loop
      vertex 39.4047 1.90735e-07 -7.62939e-07
      vertex 40 0.364817 1.2
      vertex 39.4047 1.90735e-07 1.2
    endloop
  endfacet
  facet normal 0.522484 -0.852649 0
    outer loop
      vertex 40 0.364817 1.2
      vertex 39.4047 1.90735e-07 -7.62939e-07
      vertex 40 0.364817 -7.62939e-07
    endloop
  endfacet
  facet normal -1 0 0
    outer loop
      vertex 10 29 -7.62939e-07
      vertex 10 33 1.2
      vertex 10 33 -7.62939e-07
    endloop
  endfacet
  facet normal -1 -0 0
    outer loop
      vertex 10 33 1.2
      vertex 10 29 -7.62939e-07
      vertex 10 29 1.2
    endloop
  endfacet
  facet normal 0 1 -0
    outer loop
      vertex 10 29 -7.62939e-07
      vertex 0.633546 29 1.2
      vertex 10 29 1.2
    endloop
  endfacet
  facet normal 0 1 0
    outer loop
      vertex 0.633546 29 1.2
      vertex 10 29 -7.62939e-07
      vertex 0.633546 29 -7.62939e-07
    endloop
  endfacet
endsolid OpenSCAD_Model
